<svg xmlns="http://www.w3.org/2000/svg" viewBox="0 0 128 128">
  <defs>
    <linearGradient id="g1" x1="0" y1="0" x2="1" y2="1">
      <stop offset="0%" stop-color="#f0b48a"/>
      <stop offset="100%" stop-color="#b45309"/>
    </linearGradient>
    <linearGradient id="g2" x1="0" y1="1" x2="1" y2="0">
      <stop offset="0%" stop-color="#111827"/>
      <stop offset="100%" stop-color="#b45309"/>
    </linearGradient>
    <filter id="shadow" x="-50%" y="-50%" width="200%" height="200%">
      <feDropShadow dx="0" dy="6" stdDeviation="6" flood-color="#000" flood-opacity=".35"/>
    </filter>
  </defs>
  <rect width="128" height="128" rx="28" fill="#0b1020"/>
  <circle cx="64" cy="64" r="52" fill="rgba(255,255,255,0.03)"/>
  <g filter="url(#shadow)">
    <path d="M18 76 L40 50 L44 58 L30 92 Z" fill="url(#g1)" opacity=".92"/>
    <path d="M110 76 L88 50 L84 58 L98 92 Z" fill="url(#g1)" opacity=".92"/>
    <path d="M34 48 L49 35 L53 43 L42 59 Z" fill="url(#g2)" opacity=".95"/>
    <path d="M94 48 L79 35 L75 43 L86 59 Z" fill="url(#g2)" opacity=".95"/>
    <path d="M64 18 L88 34 L80 82 L64 108 L48 82 L40 34 Z" fill="url(#g1)" stroke="#f0b48a" stroke-width="3"/>
    <path d="M64 34 L76 42 L72 72 L64 88 L56 72 L52 42 Z" fill="#111827" stroke="#f0b48a" stroke-width="2"/>
    <circle cx="64" cy="58" r="10" fill="#f0b48a" opacity=".96"/>
    <path d="M64 24 L69 32 H59 Z" fill="#f0b48a"/>
  </g>
</svg>